ffmpeg started on 2025-06-03 at 19:18:22
Report written to "D:\Convert\FFMetrics\reports\psnr_report-6.txt"
Log level: 32
Command line:
ffmpeg -hide_banner -nostdin -i "G:\\\xc0\xed\xe8\xec\xe5\\\xce\xed\xe3\xee\xe8\xed\xe3\xe8\\!_36_\xce\xf1\xe5\xed\xfc_2024\\DreamCast\\\xc1\xe0\xf8\xed\xff \xc1\xee\xe3\xe0\\\xd2\xc2-2\\[DC] Kami no Tou - Ouji no Kikan - 01_Telegram_HEVC.mkv" -i "G:\\\xc0\xed\xe8\xec\xe5\\\xce\xed\xe3\xee\xe8\xed\xe3\xe8\\!_36_\xce\xf1\xe5\xed\xfc_2024\\DreamCast\\\xc1\xe0\xf8\xed\xff \xc1\xee\xe3\xe0\\\xd2\xc2-2\\[DC] Kami no Tou - Ouji no Kikan - 01_Telegram.mp4" -lavfi "[0:v]settb=AVTB,setpts=PTS-STARTPTS,format=pix_fmts=yuv420p10,fps=24000/1001,scale=1920:1080:flags=bicubic[main];[1:v]settb=AVTB,setpts=PTS-STARTPTS,format=pix_fmts=yuv420p,fps=24000/1001,scale=1920:1080:flags=bicubic[ref];[main][ref]psnr=eof_action=endall:stats_file='D\\:/Convert/FFMetrics/logs/psnr_logfile-6.txt'" -f null -
Input #0, matroska,webm, from 'G:\Аниме\Онгоинги\!_36_Осень_2024\DreamCast\Башня Бога\ТВ-2\[DC] Kami no Tou - Ouji no Kikan - 01_Telegram_HEVC.mkv':
  Metadata:
    COMPATIBLE_BRANDS: isomiso2avc1mp41
    MAJOR_BRAND     : isom
    MINOR_VERSION   : 512
    ENCODER         : Lavf61.7.100
  Duration: 00:24:01.75, start: -0.021000, bitrate: 1393 kb/s
  Stream #0:0: Video: hevc (Main 10), yuv420p10le(tv, bt709, progressive), 1920x1080 [SAR 1:1 DAR 16:9], 23.98 fps, 23.98 tbr, 1k tbn (default)
      Metadata:
        HANDLER_NAME    : VideoHandler
        VENDOR_ID       : [0][0][0][0]
        ENCODER         : Lavc61.19.100 libx265
        BPS             : 1195779
        DURATION        : 00:24:01.606708333
        NUMBER_OF_FRAMES: 34564
        NUMBER_OF_BYTES : 215480420
        _STATISTICS_WRITING_APP: mkvpropedit v66.0.0 ('Josie') 64-bit
        _STATISTICS_WRITING_DATE_UTC: 2025-05-29 15:34:48
        _STATISTICS_TAGS: BPS DURATION NUMBER_OF_FRAMES NUMBER_OF_BYTES
  Stream #0:1: Audio: aac (LC), 48000 Hz, stereo, fltp (default)
      Metadata:
        HANDLER_NAME    : SoundHandler
        VENDOR_ID       : [0][0][0][0]
        ENCODER         : Lavc61.19.100 aac
        BPS             : 193590
        DURATION        : 00:24:01.749000000
        NUMBER_OF_FRAMES: 67583
        NUMBER_OF_BYTES : 34888553
        _STATISTICS_WRITING_APP: mkvpropedit v66.0.0 ('Josie') 64-bit
        _STATISTICS_WRITING_DATE_UTC: 2025-05-29 15:34:48
        _STATISTICS_TAGS: BPS DURATION NUMBER_OF_FRAMES NUMBER_OF_BYTES
Input #1, mov,mp4,m4a,3gp,3g2,mj2, from 'G:\Аниме\Онгоинги\!_36_Осень_2024\DreamCast\Башня Бога\ТВ-2\[DC] Kami no Tou - Ouji no Kikan - 01_Telegram.mp4':
  Metadata:
    major_brand     : isom
    minor_version   : 512
    compatible_brands: isomiso2avc1mp41
    encoder         : Lavf60.16.100
  Duration: 00:24:01.72, start: 0.000000, bitrate: 3273 kb/s
  Stream #1:0[0x1](und): Video: h264 (High) (avc1 / 0x31637661), yuv420p(tv, bt709, progressive), 1920x1080 [SAR 1:1 DAR 16:9], 3126 kb/s, 23.98 fps, 23.98 tbr, 24k tbn (default)
      Metadata:
        handler_name    : VideoHandler
        vendor_id       : [0][0][0][0]
        encoder         : Lavc60.31.102 h264_qsv
  Stream #1:1[0x2](und): Audio: aac (HE-AACv2) (mp4a / 0x6134706D), 48000 Hz, stereo, fltp, 144 kb/s (default)
      Metadata:
        handler_name    : SoundHandler
        vendor_id       : [0][0][0][0]
Stream mapping:
  Stream #0:0 (hevc) -> settb:default
  Stream #1:0 (h264) -> settb:default
  psnr:default -> Stream #0:0 (wrapped_avframe)
  Stream #0:1 -> #0:1 (aac (native) -> pcm_s16le (native))
Output #0, null, to 'pipe:':
  Metadata:
    COMPATIBLE_BRANDS: isomiso2avc1mp41
    MAJOR_BRAND     : isom
    MINOR_VERSION   : 512
    encoder         : Lavf61.7.100
  Stream #0:0: Video: wrapped_avframe, yuv420p10le(tv, bt709, progressive), 1920x1080 [SAR 1:1 DAR 16:9], q=2-31, 200 kb/s, 23.98 fps, 23.98 tbn
      Metadata:
        encoder         : Lavc61.19.100 wrapped_avframe
  Stream #0:1: Audio: pcm_s16le, 48000 Hz, stereo, s16, 1536 kb/s (default)
      Metadata:
        HANDLER_NAME    : SoundHandler
        VENDOR_ID       : [0][0][0][0]
        _STATISTICS_TAGS: BPS DURATION NUMBER_OF_FRAMES NUMBER_OF_BYTES
        BPS             : 193590
        DURATION        : 00:24:01.749000000
        NUMBER_OF_FRAMES: 67583
        NUMBER_OF_BYTES : 34888553
        _STATISTICS_WRITING_APP: mkvpropedit v66.0.0 ('Josie') 64-bit
        _STATISTICS_WRITING_DATE_UTC: 2025-05-29 15:34:48
        encoder         : Lavc61.19.100 pcm_s16le
frame=  172 fps=0.0 q=-0.0 size=N/A time=00:00:07.17 bitrate=N/A speed=  14x    frame=  412 fps=399 q=-0.0 size=N/A time=00:00:17.18 bitrate=N/A speed=16.7x    frame=  675 fps=438 q=-0.0 size=N/A time=00:00:28.15 bitrate=N/A speed=18.3x    frame=  951 fps=460 q=-0.0 size=N/A time=00:00:39.66 bitrate=N/A speed=19.2x    frame= 1209 fps=470 q=-0.0 size=N/A time=00:00:50.42 bitrate=N/A speed=19.6x    frame= 1453 fps=469 q=-0.0 size=N/A time=00:01:00.60 bitrate=N/A speed=19.6x    frame= 1714 fps=475 q=-0.0 size=N/A time=00:01:11.48 bitrate=N/A speed=19.8x    frame= 1973 fps=478 q=-0.0 size=N/A time=00:01:22.29 bitrate=N/A speed=19.9x    frame= 2242 fps=484 q=-0.0 size=N/A time=00:01:33.51 bitrate=N/A speed=20.2x    frame= 2524 fps=489 q=-0.0 size=N/A time=00:01:45.27 bitrate=N/A speed=20.4x    frame= 2792 fps=493 q=-0.0 size=N/A time=00:01:56.44 bitrate=N/A speed=20.5x    frame= 3045 fps=492 q=-0.0 size=N/A time=00:02:07.00 bitrate=N/A speed=20.5x    frame= 3300 fps=492 q=-0.0 size=N/A time=00:02:17.63 bitrate=N/A speed=20.5x    frame= 3578 fps=496 q=-0.0 size=N/A time=00:02:29.23 bitrate=N/A speed=20.7x    frame= 3840 fps=496 q=-0.0 size=N/A time=00:02:40.16 bitrate=N/A speed=20.7x    frame= 4117 fps=499 q=-0.0 size=N/A time=00:02:51.71 bitrate=N/A speed=20.8x    frame= 4376 fps=499 q=-0.0 size=N/A time=00:03:02.51 bitrate=N/A speed=20.8x    frame= 4657 fps=502 q=-0.0 size=N/A time=00:03:14.23 bitrate=N/A speed=20.9x    frame= 4931 fps=504 q=-0.0 size=N/A time=00:03:25.66 bitrate=N/A speed=  21x    frame= 5221 fps=506 q=-0.0 size=N/A time=00:03:37.75 bitrate=N/A speed=21.1x    frame= 5500 fps=508 q=-0.0 size=N/A time=00:03:49.39 bitrate=N/A speed=21.2x    frame= 5799 fps=511 q=-0.0 size=N/A time=00:04:01.86 bitrate=N/A speed=21.3x    frame= 6038 fps=509 q=-0.0 size=N/A time=00:04:11.83 bitrate=N/A speed=21.2x    frame= 6256 fps=505 q=-0.0 size=N/A time=00:04:20.92 bitrate=N/A speed=21.1x    frame= 6399 fps=496 q=-0.0 size=N/A time=00:04:26.89 bitrate=N/A speed=20.7x    frame= 6554 fps=489 q=-0.0 size=N/A time=00:04:33.35 bitrate=N/A speed=20.4x    frame= 6683 fps=480 q=-0.0 size=N/A time=00:04:38.73 bitrate=N/A speed=  20x    frame= 6834 fps=473 q=-0.0 size=N/A time=00:04:45.03 bitrate=N/A speed=19.7x    frame= 6971 fps=466 q=-0.0 size=N/A time=00:04:50.74 bitrate=N/A speed=19.4x    frame= 7107 fps=459 q=-0.0 size=N/A time=00:04:56.42 bitrate=N/A speed=19.2x    frame= 7251 fps=454 q=-0.0 size=N/A time=00:05:02.42 bitrate=N/A speed=18.9x    frame= 7439 fps=451 q=-0.0 size=N/A time=00:05:10.26 bitrate=N/A speed=18.8x    frame= 7605 fps=447 q=-0.0 size=N/A time=00:05:17.19 bitrate=N/A speed=18.6x    frame= 7736 fps=441 q=-0.0 size=N/A time=00:05:22.65 bitrate=N/A speed=18.4x    frame= 7854 fps=435 q=-0.0 size=N/A time=00:05:27.57 bitrate=N/A speed=18.2x    frame= 7956 fps=429 q=-0.0 size=N/A time=00:05:31.83 bitrate=N/A speed=17.9x    frame= 8057 fps=422 q=-0.0 size=N/A time=00:05:36.04 bitrate=N/A speed=17.6x    frame= 8208 fps=419 q=-0.0 size=N/A time=00:05:42.34 bitrate=N/A speed=17.5x    frame= 8348 fps=415 q=-0.0 size=N/A time=00:05:48.18 bitrate=N/A speed=17.3x    frame= 8580 fps=416 q=-0.0 size=N/A time=00:05:57.85 bitrate=N/A speed=17.3x    frame= 8822 fps=417 q=-0.0 size=N/A time=00:06:07.95 bitrate=N/A speed=17.4x    frame= 9085 fps=419 q=-0.0 size=N/A time=00:06:18.92 bitrate=N/A speed=17.5x    frame= 9356 fps=422 q=-0.0 size=N/A time=00:06:30.22 bitrate=N/A speed=17.6x    frame= 9609 fps=423 q=-0.0 size=N/A time=00:06:40.77 bitrate=N/A speed=17.7x    frame= 9841 fps=424 q=-0.0 size=N/A time=00:06:50.45 bitrate=N/A speed=17.7x    frame=10095 fps=426 q=-0.0 size=N/A time=00:07:01.04 bitrate=N/A speed=17.8x    frame=10314 fps=426 q=-0.0 size=N/A time=00:07:10.17 bitrate=N/A speed=17.8x    frame=10582 fps=428 q=-0.0 size=N/A time=00:07:21.35 bitrate=N/A speed=17.8x    frame=10834 fps=429 q=-0.0 size=N/A time=00:07:31.86 bitrate=N/A speed=17.9x    frame=11079 fps=430 q=-0.0 size=N/A time=00:07:42.08 bitrate=N/A speed=17.9x    frame=11327 fps=431 q=-0.0 size=N/A time=00:07:52.43 bitrate=N/A speed=  18x    frame=11590 fps=432 q=-0.0 size=N/A time=00:08:03.39 bitrate=N/A speed=  18x    frame=11854 fps=434 q=-0.0 size=N/A time=00:08:14.41 bitrate=N/A speed=18.1x    frame=12140 fps=436 q=-0.0 size=N/A time=00:08:26.33 bitrate=N/A speed=18.2x    frame=12406 fps=437 q=-0.0 size=N/A time=00:08:37.43 bitrate=N/A speed=18.2x    frame=12652 fps=438 q=-0.0 size=N/A time=00:08:47.69 bitrate=N/A speed=18.3x    frame=12908 fps=439 q=-0.0 size=N/A time=00:08:58.37 bitrate=N/A speed=18.3x    frame=13182 fps=441 q=-0.0 size=N/A time=00:09:09.79 bitrate=N/A speed=18.4x    frame=13442 fps=442 q=-0.0 size=N/A time=00:09:20.64 bitrate=N/A speed=18.4x    frame=13722 fps=444 q=-0.0 size=N/A time=00:09:32.32 bitrate=N/A speed=18.5x    frame=13990 fps=445 q=-0.0 size=N/A time=00:09:43.49 bitrate=N/A speed=18.5x    frame=14261 fps=446 q=-0.0 size=N/A time=00:09:54.80 bitrate=N/A speed=18.6x    frame=14536 fps=448 q=-0.0 size=N/A time=00:10:06.27 bitrate=N/A speed=18.7x    frame=14808 fps=449 q=-0.0 size=N/A time=00:10:17.61 bitrate=N/A speed=18.7x    frame=15079 fps=450 q=-0.0 size=N/A time=00:10:28.91 bitrate=N/A speed=18.8x    frame=15337 fps=451 q=-0.0 size=N/A time=00:10:39.68 bitrate=N/A speed=18.8x    frame=15613 fps=452 q=-0.0 size=N/A time=00:10:51.19 bitrate=N/A speed=18.8x    frame=15879 fps=453 q=-0.0 size=N/A time=00:11:02.28 bitrate=N/A speed=18.9x    frame=16150 fps=454 q=-0.0 size=N/A time=00:11:13.58 bitrate=N/A speed=18.9x    frame=16416 fps=455 q=-0.0 size=N/A time=00:11:24.68 bitrate=N/A speed=  19x    frame=16669 fps=455 q=-0.0 size=N/A time=00:11:35.23 bitrate=N/A speed=  19x    frame=16901 fps=455 q=-0.0 size=N/A time=00:11:44.91 bitrate=N/A speed=  19x    frame=17168 fps=456 q=-0.0 size=N/A time=00:11:56.04 bitrate=N/A speed=  19x    frame=17416 fps=456 q=-0.0 size=N/A time=00:12:06.39 bitrate=N/A speed=  19x    frame=17672 fps=457 q=-0.0 size=N/A time=00:12:17.06 bitrate=N/A speed=19.1x    frame=17938 fps=458 q=-0.0 size=N/A time=00:12:28.16 bitrate=N/A speed=19.1x    frame=18208 fps=459 q=-0.0 size=N/A time=00:12:39.42 bitrate=N/A speed=19.1x    frame=18478 fps=459 q=-0.0 size=N/A time=00:12:50.68 bitrate=N/A speed=19.2x    frame=18758 fps=460 q=-0.0 size=N/A time=00:13:02.36 bitrate=N/A speed=19.2x    frame=19024 fps=461 q=-0.0 size=N/A time=00:13:13.45 bitrate=N/A speed=19.2x    frame=19306 fps=462 q=-0.0 size=N/A time=00:13:25.22 bitrate=N/A speed=19.3x    frame=19567 fps=463 q=-0.0 size=N/A time=00:13:36.10 bitrate=N/A speed=19.3x    frame=19835 fps=463 q=-0.0 size=N/A time=00:13:47.28 bitrate=N/A speed=19.3x    frame=20096 fps=464 q=-0.0 size=N/A time=00:13:58.17 bitrate=N/A speed=19.4x    frame=20357 fps=464 q=-0.0 size=N/A time=00:14:09.05 bitrate=N/A speed=19.4x    frame=20614 fps=465 q=-0.0 size=N/A time=00:14:19.77 bitrate=N/A speed=19.4x    frame=20853 fps=465 q=-0.0 size=N/A time=00:14:29.74 bitrate=N/A speed=19.4x    frame=21126 fps=466 q=-0.0 size=N/A time=00:14:41.13 bitrate=N/A speed=19.4x    frame=21384 fps=466 q=-0.0 size=N/A time=00:14:51.89 bitrate=N/A speed=19.4x    frame=21647 fps=466 q=-0.0 size=N/A time=00:15:02.86 bitrate=N/A speed=19.5x    frame=21916 fps=467 q=-0.0 size=N/A time=00:15:14.07 bitrate=N/A speed=19.5x    frame=22171 fps=467 q=-0.0 size=N/A time=00:15:24.71 bitrate=N/A speed=19.5x    frame=22412 fps=467 q=-0.0 size=N/A time=00:15:34.76 bitrate=N/A speed=19.5x    frame=22669 fps=468 q=-0.0 size=N/A time=00:15:45.48 bitrate=N/A speed=19.5x    frame=22950 fps=468 q=-0.0 size=N/A time=00:15:57.20 bitrate=N/A speed=19.5x    frame=23223 fps=469 q=-0.0 size=N/A time=00:16:08.59 bitrate=N/A speed=19.6x    frame=23484 fps=469 q=-0.0 size=N/A time=00:16:19.47 bitrate=N/A speed=19.6x    frame=23743 fps=470 q=-0.0 size=N/A time=00:16:30.28 bitrate=N/A speed=19.6x    frame=24011 fps=470 q=-0.0 size=N/A time=00:16:41.45 bitrate=N/A speed=19.6x    frame=24263 fps=470 q=-0.0 size=N/A time=00:16:51.96 bitrate=N/A speed=19.6x    frame=24523 fps=471 q=-0.0 size=N/A time=00:17:02.81 bitrate=N/A speed=19.6x    frame=24739 fps=470 q=-0.0 size=N/A time=00:17:11.82 bitrate=N/A speed=19.6x    frame=25004 fps=471 q=-0.0 size=N/A time=00:17:22.87 bitrate=N/A speed=19.6x    frame=25238 fps=471 q=-0.0 size=N/A time=00:17:32.63 bitrate=N/A speed=19.6x    frame=25490 fps=471 q=-0.0 size=N/A time=00:17:43.14 bitrate=N/A speed=19.6x    frame=25756 fps=471 q=-0.0 size=N/A time=00:17:54.23 bitrate=N/A speed=19.7x    frame=25972 fps=471 q=-0.0 size=N/A time=00:18:03.24 bitrate=N/A speed=19.6x    frame=26215 fps=471 q=-0.0 size=N/A time=00:18:13.38 bitrate=N/A speed=19.6x    frame=26387 fps=470 q=-0.0 size=N/A time=00:18:20.55 bitrate=N/A speed=19.6x    frame=26634 fps=470 q=-0.0 size=N/A time=00:18:30.85 bitrate=N/A speed=19.6x    frame=26848 fps=469 q=-0.0 size=N/A time=00:18:39.78 bitrate=N/A speed=19.6x    frame=27059 fps=469 q=-0.0 size=N/A time=00:18:48.58 bitrate=N/A speed=19.5x    frame=27290 fps=468 q=-0.0 size=N/A time=00:18:58.22 bitrate=N/A speed=19.5x    frame=27528 fps=468 q=-0.0 size=N/A time=00:19:08.14 bitrate=N/A speed=19.5x    frame=27779 fps=468 q=-0.0 size=N/A time=00:19:18.61 bitrate=N/A speed=19.5x    frame=28047 fps=469 q=-0.0 size=N/A time=00:19:29.79 bitrate=N/A speed=19.6x    frame=28263 fps=468 q=-0.0 size=N/A time=00:19:38.80 bitrate=N/A speed=19.5x    frame=28475 fps=468 q=-0.0 size=N/A time=00:19:47.64 bitrate=N/A speed=19.5x    frame=28671 fps=467 q=-0.0 size=N/A time=00:19:55.81 bitrate=N/A speed=19.5x    frame=28925 fps=468 q=-0.0 size=N/A time=00:20:06.41 bitrate=N/A speed=19.5x    frame=29107 fps=466 q=-0.0 size=N/A time=00:20:14.00 bitrate=N/A speed=19.5x    frame=29278 fps=465 q=-0.0 size=N/A time=00:20:21.13 bitrate=N/A speed=19.4x    frame=29490 fps=465 q=-0.0 size=N/A time=00:20:29.97 bitrate=N/A speed=19.4x    frame=29738 fps=465 q=-0.0 size=N/A time=00:20:40.32 bitrate=N/A speed=19.4x    frame=29980 fps=465 q=-0.0 size=N/A time=00:20:50.41 bitrate=N/A speed=19.4x    frame=30202 fps=465 q=-0.0 size=N/A time=00:20:59.67 bitrate=N/A speed=19.4x    frame=30438 fps=465 q=-0.0 size=N/A time=00:21:09.51 bitrate=N/A speed=19.4x    frame=30664 fps=465 q=-0.0 size=N/A time=00:21:18.94 bitrate=N/A speed=19.4x    frame=30846 fps=464 q=-0.0 size=N/A time=00:21:26.53 bitrate=N/A speed=19.3x    frame=31128 fps=464 q=-0.0 size=N/A time=00:21:38.29 bitrate=N/A speed=19.4x    frame=31392 fps=465 q=-0.0 size=N/A time=00:21:49.30 bitrate=N/A speed=19.4x    frame=31660 fps=465 q=-0.0 size=N/A time=00:22:00.48 bitrate=N/A speed=19.4x    frame=31899 fps=465 q=-0.0 size=N/A time=00:22:10.45 bitrate=N/A speed=19.4x    frame=32160 fps=465 q=-0.0 size=N/A time=00:22:21.34 bitrate=N/A speed=19.4x    frame=32405 fps=465 q=-0.0 size=N/A time=00:22:31.55 bitrate=N/A speed=19.4x    frame=32626 fps=465 q=-0.0 size=N/A time=00:22:40.77 bitrate=N/A speed=19.4x    frame=32858 fps=465 q=-0.0 size=N/A time=00:22:50.45 bitrate=N/A speed=19.4x    frame=33114 fps=465 q=-0.0 size=N/A time=00:23:01.12 bitrate=N/A speed=19.4x    frame=33351 fps=465 q=-0.0 size=N/A time=00:23:11.01 bitrate=N/A speed=19.4x    frame=33596 fps=465 q=-0.0 size=N/A time=00:23:21.23 bitrate=N/A speed=19.4x    frame=33822 fps=465 q=-0.0 size=N/A time=00:23:30.65 bitrate=N/A speed=19.4x    frame=34071 fps=465 q=-0.0 size=N/A time=00:23:41.04 bitrate=N/A speed=19.4x    frame=34310 fps=465 q=-0.0 size=N/A time=00:23:51.01 bitrate=N/A speed=19.4x    frame=34550 fps=465 q=-0.0 size=N/A time=00:24:01.02 bitrate=N/A speed=19.4x    [Parsed_psnr_10 @ 000001a3ce54a6c0] PSNR y:49.223740 u:52.035382 v:51.301821 average:49.892988 min:36.837470 max:inf
[out#0/null @ 000001a3cbc04580] video:14852KiB audio:270332KiB subtitle:0KiB other streams:0KiB global headers:0KiB muxing overhead: unknown
frame=34564 fps=465 q=-0.0 Lsize=N/A time=00:24:01.60 bitrate=N/A speed=19.4x    
